<svg width="353" height="30" viewBox="0 0 353 30" fill="none" xmlns="http://www.w3.org/2000/svg">
<path d="M30.4958 17.5375V4.21964C31.7183 3.47976 35.3212 2 39.9534 2C44.5857 2 48.253 3.47976 49.5075 4.21964V17.5375C48.639 20.5292 44.7787 25.837 39.9534 27.2846C34.8579 25.8949 31.5252 20.2075 30.4958 17.5375Z" stroke="white" stroke-width="3"/>
<path d="M47.7705 17.0283C47.0562 19.4947 43.8818 23.8706 39.9138 25.0641C39.4594 24.9398 39.0221 24.7739 38.6024 24.5741C39.6639 20.5133 43.2347 14.4484 44.5858 12.6148C40.7255 14.7394 37.187 20.1979 35.9002 22.6615C35.205 21.9952 34.5928 21.2606 34.0689 20.5283C36.5804 15.9925 42.0766 11.386 45.1648 9.45586C40.6869 9.9963 34.6135 15.1325 32.1365 17.6331V13.8694C35.4177 10.7104 41.5941 7.59646 45.1648 6.6314C39.0656 6.24538 33.9379 8.68897 32.1365 9.95902V6.04868C33.1417 5.4387 36.1045 4.21875 39.9138 4.21875C43.7231 4.21875 46.7388 5.4387 47.7705 6.04868V17.0283Z" fill="white"/>
<path d="M54.3296 3.63867C54.098 5.02836 52.1743 6.2765 51.2415 6.72687H77.3946C79.0159 6.26364 79.8072 4.47506 80.0002 3.63867H54.3296Z" fill="white"/>
<path d="M74.4995 8.75391H51.145V11.7456H71.7008C73.6309 11.2052 74.3708 9.52595 74.4995 8.75391Z" fill="white"/>
<path d="M65.7174 13.5781H51.145V16.5698H63.2083C64.9068 16.5698 65.5888 14.5754 65.7174 13.5781Z" fill="white"/>
<path d="M25.6706 3.63867C25.9022 5.02836 27.8259 6.2765 28.7588 6.72687H2.60566C0.98436 6.26364 0.19301 4.47506 -1.90735e-06 3.63867H25.6706Z" fill="white"/>
<path d="M5.50076 8.75391H28.8552V11.7456H8.29943C6.36931 11.2052 5.62943 9.52595 5.50076 8.75391Z" fill="white"/>
<path d="M14.2828 13.5781H28.8552V16.5698H16.792C15.0935 16.5698 14.4115 14.5754 14.2828 13.5781Z" fill="white"/>
<path d="M113.288 5.79492L108.299 24H104.884L101.418 11.2666C101.274 10.7249 101.185 10.1325 101.151 9.48926H101.101C101.058 10.0902 100.957 10.6742 100.796 11.2412L97.3174 24H93.8262L88.7354 5.79492H92.0488L95.3496 19.125C95.485 19.6836 95.5697 20.2676 95.6035 20.877H95.667C95.7008 20.4453 95.8193 19.8613 96.0225 19.125L99.7549 5.79492H102.865L106.318 19.2266C106.437 19.6836 106.526 20.2253 106.585 20.8516H106.636C106.661 20.4284 106.758 19.8698 106.928 19.1758L110.165 5.79492H113.288ZM116.97 8.27051C116.487 8.27051 116.073 8.11393 115.726 7.80078C115.387 7.48763 115.218 7.08984 115.218 6.60742C115.218 6.125 115.387 5.72298 115.726 5.40137C116.073 5.07975 116.487 4.91895 116.97 4.91895C117.469 4.91895 117.892 5.07975 118.239 5.40137C118.586 5.72298 118.76 6.125 118.76 6.60742C118.76 7.06445 118.586 7.45801 118.239 7.78809C117.892 8.1097 117.469 8.27051 116.97 8.27051ZM118.43 24H115.484V11H118.43V24ZM134.108 24H131.163V21.791H131.112C130.164 23.4668 128.704 24.3047 126.732 24.3047C125.133 24.3047 123.851 23.7249 122.886 22.5654C121.929 21.3975 121.451 19.8105 121.451 17.8047C121.451 15.6549 121.98 13.9326 123.038 12.6377C124.104 11.3428 125.522 10.6953 127.291 10.6953C129.043 10.6953 130.317 11.3978 131.112 12.8027H131.163V4.75391H134.108V24ZM131.201 18.0586V16.3574C131.201 15.4349 130.901 14.652 130.3 14.0088C129.699 13.3656 128.933 13.0439 128.002 13.0439C126.902 13.0439 126.034 13.4544 125.399 14.2754C124.773 15.0964 124.46 16.2347 124.46 17.6904C124.46 19.0107 124.76 20.056 125.361 20.8262C125.971 21.5879 126.787 21.9688 127.812 21.9688C128.819 21.9688 129.635 21.6006 130.262 20.8643C130.888 20.1195 131.201 19.1842 131.201 18.0586ZM148.962 18.2998H140.101C140.134 19.5016 140.503 20.4284 141.205 21.0801C141.916 21.7318 142.889 22.0576 144.125 22.0576C145.513 22.0576 146.787 21.6429 147.946 20.8135V23.1875C146.761 23.9323 145.196 24.3047 143.249 24.3047C141.336 24.3047 139.834 23.7165 138.742 22.54C137.659 21.3551 137.117 19.6921 137.117 17.5508C137.117 15.528 137.714 13.8818 138.907 12.6123C140.109 11.3343 141.599 10.6953 143.376 10.6953C145.153 10.6953 146.529 11.2666 147.502 12.4092C148.475 13.5518 148.962 15.1387 148.962 17.1699V18.2998ZM146.118 16.2178C146.11 15.1598 145.86 14.3389 145.369 13.7549C144.878 13.1624 144.201 12.8662 143.338 12.8662C142.492 12.8662 141.772 13.1751 141.18 13.793C140.596 14.4108 140.236 15.2191 140.101 16.2178H146.118ZM181.843 5.79492L176.854 24H173.438L169.973 11.2666C169.829 10.7249 169.74 10.1325 169.706 9.48926H169.655C169.613 10.0902 169.511 10.6742 169.351 11.2412L165.872 24H162.381L157.29 5.79492H160.604L163.904 19.125C164.04 19.6836 164.124 20.2676 164.158 20.877H164.222C164.256 20.4453 164.374 19.8613 164.577 19.125L168.31 5.79492H171.42L174.873 19.2266C174.992 19.6836 175.08 20.2253 175.14 20.8516H175.19C175.216 20.4284 175.313 19.8698 175.482 19.1758L178.72 5.79492H181.843ZM189.143 24.3047C187.137 24.3047 185.533 23.6995 184.331 22.4893C183.138 21.2705 182.541 19.6582 182.541 17.6523C182.541 15.4688 183.163 13.7633 184.407 12.5361C185.66 11.3089 187.344 10.6953 189.46 10.6953C191.491 10.6953 193.074 11.292 194.208 12.4854C195.342 13.6787 195.909 15.3333 195.909 17.4492C195.909 19.5228 195.296 21.1859 194.068 22.4385C192.85 23.6826 191.208 24.3047 189.143 24.3047ZM189.282 13.0439C188.131 13.0439 187.221 13.446 186.553 14.25C185.884 15.054 185.55 16.1628 185.55 17.5762C185.55 18.9388 185.888 20.0137 186.565 20.8008C187.243 21.5794 188.148 21.9688 189.282 21.9688C190.442 21.9688 191.33 21.5837 191.948 20.8135C192.575 20.0433 192.888 18.9473 192.888 17.5254C192.888 16.0951 192.575 14.9906 191.948 14.2119C191.33 13.4333 190.442 13.0439 189.282 13.0439ZM206.459 13.8057C206.104 13.5264 205.591 13.3867 204.923 13.3867C204.051 13.3867 203.323 13.7803 202.739 14.5674C202.155 15.3545 201.863 16.4251 201.863 17.7793V24H198.918V11H201.863V13.6787H201.914C202.202 12.7646 202.642 12.0537 203.234 11.5459C203.835 11.0296 204.504 10.7715 205.24 10.7715C205.773 10.7715 206.18 10.8519 206.459 11.0127V13.8057ZM211.499 24H208.541V4.75391H211.499V24ZM227.165 24H224.22V21.791H224.169C223.221 23.4668 221.761 24.3047 219.789 24.3047C218.189 24.3047 216.907 23.7249 215.942 22.5654C214.986 21.3975 214.508 19.8105 214.508 17.8047C214.508 15.6549 215.037 13.9326 216.095 12.6377C217.161 11.3428 218.579 10.6953 220.348 10.6953C222.1 10.6953 223.373 11.3978 224.169 12.8027H224.22V4.75391H227.165V24ZM224.258 18.0586V16.3574C224.258 15.4349 223.957 14.652 223.356 14.0088C222.756 13.3656 221.99 13.0439 221.059 13.0439C219.958 13.0439 219.091 13.4544 218.456 14.2754C217.83 15.0964 217.517 16.2347 217.517 17.6904C217.517 19.0107 217.817 20.056 218.418 20.8262C219.027 21.5879 219.844 21.9688 220.868 21.9688C221.875 21.9688 222.692 21.6006 223.318 20.8643C223.945 20.1195 224.258 19.1842 224.258 18.0586ZM241.6 24H238.489V5.79492H241.6V24ZM265.2 24H262.255V16.916C262.255 15.5534 262.06 14.5674 261.671 13.958C261.29 13.3486 260.643 13.0439 259.729 13.0439C258.958 13.0439 258.302 13.429 257.761 14.1992C257.228 14.9694 256.961 15.8919 256.961 16.9668V24H254.003V16.6748C254.003 14.2542 253.148 13.0439 251.438 13.0439C250.643 13.0439 249.987 13.4079 249.471 14.1357C248.963 14.8636 248.709 15.8073 248.709 16.9668V24H245.764V11H248.709V13.0566H248.76C249.699 11.4824 251.066 10.6953 252.86 10.6953C253.757 10.6953 254.54 10.945 255.209 11.4443C255.886 11.9352 256.347 12.5827 256.593 13.3867C257.558 11.5924 258.996 10.6953 260.909 10.6953C263.77 10.6953 265.2 12.46 265.2 15.9893V24ZM271.789 22.083H271.738V29.9795H268.793V11H271.738V13.2852H271.789C272.796 11.5586 274.269 10.6953 276.207 10.6953C277.857 10.6953 279.144 11.2751 280.066 12.4346C280.989 13.5941 281.45 15.1514 281.45 17.1064C281.45 19.2731 280.93 21.0081 279.889 22.3115C278.848 23.6149 277.426 24.2666 275.623 24.2666C273.964 24.2666 272.686 23.5387 271.789 22.083ZM271.713 16.9541V18.5664C271.713 19.5143 272.013 20.3184 272.614 20.9785C273.224 21.6387 273.994 21.9688 274.925 21.9688C276.017 21.9688 276.871 21.5456 277.489 20.6992C278.116 19.8444 278.429 18.6553 278.429 17.1318C278.429 15.8538 278.137 14.8551 277.553 14.1357C276.977 13.4079 276.194 13.0439 275.204 13.0439C274.155 13.0439 273.308 13.4163 272.665 14.1611C272.03 14.9059 271.713 15.8369 271.713 16.9541ZM290.223 24.3047C288.217 24.3047 286.613 23.6995 285.411 22.4893C284.218 21.2705 283.621 19.6582 283.621 17.6523C283.621 15.4688 284.243 13.7633 285.487 12.5361C286.74 11.3089 288.424 10.6953 290.54 10.6953C292.571 10.6953 294.154 11.292 295.288 12.4854C296.422 13.6787 296.989 15.3333 296.989 17.4492C296.989 19.5228 296.376 21.1859 295.148 22.4385C293.93 23.6826 292.288 24.3047 290.223 24.3047ZM290.362 13.0439C289.211 13.0439 288.301 13.446 287.633 14.25C286.964 15.054 286.63 16.1628 286.63 17.5762C286.63 18.9388 286.968 20.0137 287.646 20.8008C288.323 21.5794 289.228 21.9688 290.362 21.9688C291.522 21.9688 292.41 21.5837 293.028 20.8135C293.655 20.0433 293.968 18.9473 293.968 17.5254C293.968 16.0951 293.655 14.9906 293.028 14.2119C292.41 13.4333 291.522 13.0439 290.362 13.0439ZM307.539 13.8057C307.184 13.5264 306.672 13.3867 306.003 13.3867C305.131 13.3867 304.403 13.7803 303.819 14.5674C303.235 15.3545 302.943 16.4251 302.943 17.7793V24H299.998V11H302.943V13.6787H302.994C303.282 12.7646 303.722 12.0537 304.314 11.5459C304.915 11.0296 305.584 10.7715 306.32 10.7715C306.854 10.7715 307.26 10.8519 307.539 11.0127V13.8057ZM317.238 23.8604C316.663 24.1481 315.905 24.292 314.966 24.292C312.444 24.292 311.183 23.0817 311.183 20.6611V13.3105H309.012V11H311.183V7.99121L314.128 7.15332V11H317.238V13.3105H314.128V19.8105C314.128 20.5807 314.268 21.1309 314.547 21.4609C314.826 21.791 315.292 21.9561 315.943 21.9561C316.443 21.9561 316.874 21.8122 317.238 21.5244V23.8604ZM330.632 18.2998H321.771C321.804 19.5016 322.173 20.4284 322.875 21.0801C323.586 21.7318 324.559 22.0576 325.795 22.0576C327.183 22.0576 328.457 21.6429 329.616 20.8135V23.1875C328.431 23.9323 326.866 24.3047 324.919 24.3047C323.006 24.3047 321.504 23.7165 320.412 22.54C319.329 21.3551 318.787 19.6921 318.787 17.5508C318.787 15.528 319.384 13.8818 320.577 12.6123C321.779 11.3343 323.269 10.6953 325.046 10.6953C326.823 10.6953 328.199 11.2666 329.172 12.4092C330.145 13.5518 330.632 15.1387 330.632 17.1699V18.2998ZM327.788 16.2178C327.78 15.1598 327.53 14.3389 327.039 13.7549C326.548 13.1624 325.871 12.8662 325.008 12.8662C324.161 12.8662 323.442 13.1751 322.85 13.793C322.266 14.4108 321.906 15.2191 321.771 16.2178H327.788ZM340.979 13.8057C340.623 13.5264 340.111 13.3867 339.442 13.3867C338.571 13.3867 337.843 13.7803 337.259 14.5674C336.675 15.3545 336.383 16.4251 336.383 17.7793V24H333.438V11H336.383V13.6787H336.434C336.721 12.7646 337.161 12.0537 337.754 11.5459C338.355 11.0296 339.023 10.7715 339.76 10.7715C340.293 10.7715 340.699 10.8519 340.979 11.0127V13.8057ZM342.426 23.5938V20.8643C343.526 21.7021 344.741 22.1211 346.069 22.1211C347.847 22.1211 348.735 21.5964 348.735 20.5469C348.735 20.2507 348.659 20.001 348.507 19.7979C348.354 19.5863 348.147 19.4001 347.885 19.2393C347.631 19.0785 347.326 18.9346 346.971 18.8076C346.624 18.6807 346.234 18.5368 345.803 18.376C345.27 18.1644 344.787 17.9401 344.355 17.7031C343.932 17.4661 343.577 17.1995 343.289 16.9033C343.01 16.5986 342.798 16.2559 342.654 15.875C342.51 15.4941 342.438 15.0498 342.438 14.542C342.438 13.9157 342.587 13.3656 342.883 12.8916C343.179 12.4092 343.577 12.0072 344.076 11.6855C344.576 11.3555 345.143 11.11 345.777 10.9492C346.412 10.7799 347.068 10.6953 347.745 10.6953C348.947 10.6953 350.022 10.8773 350.97 11.2412V13.8184C350.056 13.1921 349.006 12.8789 347.821 12.8789C347.449 12.8789 347.11 12.917 346.806 12.9932C346.509 13.0693 346.256 13.1751 346.044 13.3105C345.832 13.446 345.667 13.611 345.549 13.8057C345.43 13.9919 345.371 14.1992 345.371 14.4277C345.371 14.707 345.43 14.944 345.549 15.1387C345.667 15.3333 345.841 15.5068 346.069 15.6592C346.306 15.8031 346.586 15.9385 346.907 16.0654C347.237 16.1839 347.614 16.3151 348.037 16.459C348.596 16.6875 349.095 16.9202 349.535 17.1572C349.984 17.3942 350.365 17.665 350.678 17.9697C350.991 18.266 351.232 18.613 351.401 19.0107C351.571 19.4001 351.655 19.8656 351.655 20.4072C351.655 21.0674 351.503 21.6429 351.198 22.1338C350.894 22.6247 350.487 23.0309 349.979 23.3525C349.472 23.6742 348.883 23.9111 348.215 24.0635C347.555 24.2243 346.856 24.3047 346.12 24.3047C344.698 24.3047 343.467 24.0677 342.426 23.5938Z" fill="white"/>
</svg>
