<?xml version="1.0" encoding="utf-8"?>
<!-- Generator: Adobe Illustrator 26.5.2, SVG Export Plug-In . SVG Version: 6.00 Build 0)  -->
<svg version="1.1" id="Layer_1" xmlns="http://www.w3.org/2000/svg" xmlns:xlink="http://www.w3.org/1999/xlink" x="0px" y="0px"
	 viewBox="0 0 211.9 123.9" style="enable-background:new 0 0 211.9 123.9;" xml:space="preserve">
<style type="text/css">
	.st0{fill:#F9EC00;}
	.st1{fill:#C7885D;}
	.st2{fill:#F0F5DA;}
	.st3{fill:#F3CF1B;}
</style>
<g>
	<g>
		<path class="st0" d="M11.7,117.1c0,0,88.1-16.9,149.4-63.6c0,0-24.6-59.5-93.1-42.8C-4.1,28.2-2,93.5,11.7,117.1z"/>
		<path class="st1" d="M11.7,117.7c-0.2,0-0.4-0.1-0.5-0.3c-8.1-14-11.3-39.9-1.7-62.5c6.6-15.6,22.2-36,58.4-44.8
			c8.1-2,16-3,23.4-3c50.6,0,70.1,45.7,70.3,46.1c0.1,0.3,0,0.5-0.2,0.7c-60.7,46.3-148.8,63.6-149.7,63.7
			C11.8,117.7,11.7,117.7,11.7,117.7z M91.4,8.3c-7.4,0-15.2,1-23.1,2.9C48.5,16,22.5,27.6,10.6,55.3c-9.4,22-6.4,47.3,1.4,61.1
			c6.6-1.3,90.1-18.9,148.4-63.1C158.3,48.7,138.6,8.3,91.4,8.3z"/>
	</g>
	<path class="st2" d="M21.7,49.9c-9.1,10.8-12.5,25-8.8,38.5c3.7-20.4,14.3-40.6,31.2-52.8C35.8,39.1,27.6,42.9,21.7,49.9z"/>
	<path class="st3" d="M97.3,7.9c2.3,1.7,4.5,3.4,6.7,5.2c1.8,1.5,4.1,3.2,5.3,5.3c0.1,0.2,0,0.6-0.3,0.7c-5.5,1-11,0.6-16.5,0.3
		c-5.9-0.4-11.7-0.3-17.5,0.6c-9.4,1.5-18.5,4.4-26.7,9.2c14-5.3,30.3-8.5,44.5-2.9c7.5,3,15.3,8.6,18.4,16.3
		c3.1,7.5,0.9,15.4-3.6,21.7c-6.5,9.2-15.9,15.1-25.6,20.3c-11.3,6.1-23.3,11.5-35.9,13.9c-10.4,2-23,3-31.8-4.2
		c-5.6-4.6-8.2-10.8-9.7-17.5c-1.6,16.2,1.9,31.3,7.1,40.3c0,0,88.1-16.9,149.4-63.6C161.1,53.5,143.7,11.3,97.3,7.9z"/>
	<g>
		<path class="st0" d="M89.5,93.1c0,0,54.6-28,67.7-47.2c0,0,30.8-3.4,43.4-1.5c13.8,2.1,6.9,13.7-6.7,22c-11.1,6.8-43,15-60,20.2
			C116.9,91.9,89.5,93.1,89.5,93.1z"/>
		<path class="st1" d="M89.5,93.7c-0.3,0-0.5-0.2-0.6-0.4c-0.1-0.3,0.1-0.6,0.3-0.7c0.5-0.3,54.6-28.2,67.4-47
			c0.1-0.1,0.3-0.2,0.4-0.3c0.2,0,19-2,33.1-2c4.4,0,7.9,0.2,10.5,0.6c5.9,0.9,7.6,3.4,7.9,5.3c1,4.8-4.8,11.9-14.4,17.7
			c-8.6,5.2-29.5,11.3-46.4,16.2c-5,1.5-9.8,2.9-13.7,4.1C117.2,92.5,89.8,93.7,89.5,93.7C89.5,93.7,89.5,93.7,89.5,93.7z
			 M157.5,46.5C145.7,63.4,103,86.6,92.2,92.3c7.3-0.5,27.9-2,41.5-6.2c3.9-1.2,8.7-2.6,13.8-4.1c16.8-4.9,37.7-10.9,46.1-16.1
			c9-5.5,14.7-12.3,13.9-16.5c-0.6-2.9-4.1-4-7-4.4c-2.5-0.4-6-0.6-10.3-0.6C177,44.5,159.8,46.2,157.5,46.5z"/>
	</g>
	<path class="st3" d="M206.9,52.4c-4.8,5.8-12.3,9.7-19.3,12.5c-10.2,4-21.5,7.9-32.7,8c-2.6,0-5.5,0-8-0.8c-1-0.3-2.1-0.8-2.6-1.8
		c-1-2.5,1.8-5.4,3.4-7.1c3-3.3,6.1-6.2,8.3-10.2c1.3-2.3,2.3-4.7,2.6-7.3c-1,0.1-1.6,0.2-1.6,0.2c-13,19.1-67.7,47.2-67.7,47.2
		s27.4-1.2,44.4-6.4c17-5.3,48.9-13.5,60-20.2c8.2-5,13.9-11.1,14.2-15.7C207.7,51.3,207.3,51.9,206.9,52.4z"/>
	<g>
		<path class="st0" d="M15.6,116.3L9.5,95c0,0-5.6-4.4-5.3-3.8c0.3,0.6-1,3.2,0,12.1c1,8.8,3.4,14.4,3.4,14.4l3-0.5L15.6,116.3z"/>
		<path class="st1" d="M7.5,118.3c-0.2,0-0.5-0.1-0.5-0.4c-0.1-0.2-2.4-5.8-3.4-14.6c-0.7-6.3-0.3-9.5,0-11c0.1-0.4,0.1-0.8,0.1-0.9
			c-0.1-0.3,0-0.5,0-0.6c0.1-0.2,0.3-0.3,0.5-0.3c0.2,0,0.6,0,5.6,4c0.1,0.1,0.2,0.2,0.2,0.3l6.2,21.3c0,0.2,0,0.3-0.1,0.5
			c-0.1,0.1-0.2,0.2-0.4,0.3l-8.1,1.4C7.6,118.3,7.6,118.3,7.5,118.3z M4.7,92.2c0,0.1,0,0.2,0,0.3c-0.2,1.5-0.7,4.6,0,10.7
			c0.8,7.2,2.6,12.3,3.2,13.8l6.9-1.2L8.9,95.4C7.4,94.1,5.7,92.9,4.7,92.2z"/>
	</g>
	<g>
		<path class="st0" d="M6.4,117.7l1.3,3.8c0,0,58.9-9.4,107.6-38.4c0,0,36.1-21.8,41.9-37.2c0,0-21.8,24.9-68.7,45.3
			C43.3,110.9,6.4,117.7,6.4,117.7z"/>
		<path class="st1" d="M7.7,122.1c-0.2,0-0.5-0.2-0.6-0.4l-1.3-3.8c-0.1-0.2,0-0.3,0-0.5c0.1-0.2,0.2-0.3,0.4-0.3
			c0.4-0.1,37.4-7,82-26.4c24.1-10.5,41.5-22.2,51.7-30.2c11.1-8.6,16.6-14.9,16.7-14.9c0.2-0.2,0.5-0.3,0.8-0.1
			c0.2,0.1,0.4,0.4,0.3,0.7c-5.8,15.4-40.6,36.6-42.1,37.5C67.4,112.3,8.4,122,7.7,122.1C7.7,122.1,7.7,122.1,7.7,122.1z M7.1,118.1
			l0.9,2.7c5.8-1,61.2-11,106.9-38.2c0.3-0.2,30.9-18.8,39.9-33.4c-2.7,2.7-7.4,7-14.1,12.3c-10.3,8-27.8,19.8-52,30.4
			C47.3,109.8,12.4,117.1,7.1,118.1z"/>
	</g>
	<g>
		<path class="st0" d="M12.3,56.5c0,0,8.9-26,50.3-35.5C104,11.5,124.5,41,124.5,41S100.4,13,60.6,25.7
			C20.8,38.4,12.3,56.5,12.3,56.5z"/>
		<path class="st1" d="M12.3,57.1c-0.1,0-0.2,0-0.2,0c-0.3-0.1-0.4-0.4-0.3-0.7c0.1-0.3,9.5-26.4,50.7-35.9c5.5-1.3,11-1.9,16.2-1.9
			c30.6,0,46.2,21.9,46.3,22.1c0.2,0.3,0.1,0.6-0.1,0.8c-0.2,0.2-0.6,0.2-0.8-0.1C123.9,41.2,107.9,23,81,23
			c-6.6,0-13.4,1.1-20.3,3.3c-20.4,6.5-32.4,14.4-38.8,20c-7,6-9.1,10.5-9.1,10.5C12.7,57,12.5,57.1,12.3,57.1z M78.7,19.7
			c-5.1,0-10.5,0.6-15.9,1.9C36.1,27.7,23,40.8,17.1,49.2c6.2-6.5,18.9-16.2,43.3-24c6.9-2.2,13.9-3.3,20.6-3.3
			c14.7,0,26.2,5.3,33.8,10.3C107.3,26.2,95.2,19.7,78.7,19.7z"/>
	</g>
	<g>
		<path class="st0" d="M23.1,35.1c0,0,24.5-28.4,75.4-22.4c0,0,12.5,1.8,17.9,4.7c5.4,2.9,12.2,0,12.2,0s-4-7.2-10-11
			c-6-3.8-32.5-8-63.5,3.4C24,21.2,23.1,35.1,23.1,35.1z"/>
		<path class="st1" d="M23.1,35.7c-0.1,0-0.2,0-0.2,0c-0.2-0.1-0.4-0.3-0.4-0.6c0-0.6,1.3-14.4,32.3-25.8
			c16.8-6.2,31.3-7.4,40.5-7.4c11.8,0,20.3,2,23.5,4.1c6.1,3.8,10,10.9,10.2,11.2c0.1,0.1,0.1,0.3,0,0.5c-0.1,0.2-0.2,0.3-0.3,0.4
			c-0.1,0.1-3.2,1.4-6.9,1.4c-2.2,0-4.1-0.5-5.8-1.4c-5.2-2.8-17.5-4.6-17.7-4.6c-4.7-0.6-9.3-0.8-13.8-0.8
			c-21.3,0-36.7,6.2-46,11.5c-10,5.7-15.1,11.4-15.1,11.5C23.4,35.6,23.3,35.7,23.1,35.7z M95.3,3c-9.1,0-23.5,1.3-40.1,7.4
			C39.4,16.2,31.7,22.7,28,27c-2.1,2.5-3.2,4.6-3.7,6.1c5.5-5.3,25.6-21.8,60.4-21.8c4.6,0,9.3,0.3,14,0.8
			c0.5,0.1,12.7,1.8,18.1,4.8c1.5,0.8,3.2,1.2,5.2,1.2c2.5,0,4.8-0.7,5.8-1c-1.1-1.8-4.6-7.1-9.5-10.2C115.3,5.1,106.8,3,95.3,3z"/>
	</g>
	<g>
		<path class="st0" d="M78,95.7c0,0-5.8-14.1-5.8-14.5c0-0.5,1.7-6,5.8-10.6c0,0,9.8,0.1,14.4,3.5L97.8,87
			C97.8,87,85.3,94.4,78,95.7z"/>
		<path class="st1" d="M78,96.3c-0.2,0-0.5-0.1-0.5-0.4c-5.9-14.2-5.9-14.6-5.9-14.7c0-0.6,1.7-6.3,6-11c0.1-0.1,0.3-0.2,0.4-0.2
			c0.4,0,10,0.1,14.8,3.7c0.1,0.1,0.1,0.1,0.2,0.2l5.4,12.9c0.1,0.3,0,0.6-0.2,0.7c-0.5,0.3-12.6,7.5-20,8.7
			C78,96.3,78,96.3,78,96.3z M72.7,81.1c0.3,1,3.4,8.6,5.6,13.9c6.4-1.3,16.4-7,18.7-8.2l-5.1-12.3c-4-2.9-12.1-3.3-13.7-3.3
			C74.5,75.4,72.9,80.4,72.7,81.1z"/>
	</g>
</g>
</svg>
